<svg fill="none" height="24" viewBox="0 0 24 24" width="24" xmlns="http://www.w3.org/2000/svg"><path clip-rule="evenodd" d="m12 3c-7.4115 0-9 1.5885-9 9s1.5885 9 9 9 9-1.5885 9-9-1.5885-9-9-9zm1.4176 5.6078-.6276-1.69463c-.2715-.73313-1.3085-.73313-1.58 0l-.6276 1.69463c-.2543.68651-.90901 1.1422-1.64109 1.1422h-1.5271c-.7446 0-1.1175.9003-.59099 1.4268l1.57647 1.5764c.41374.4138.59333 1.0069.47858 1.5807l-.36903 1.8452c-.13949.6974.62049 1.2251 1.22522.8507l1.34444-.8322c.5644-.3494 1.2778-.3494 1.8422 0l1.3444.8322c.6048.3744 1.3647-.1533 1.2253-.8507l-.3691-1.8452c-.1147-.5738.0649-1.1669.4786-1.5807l1.5349-1.5348c.5418-.5419.1581-1.4684-.6082-1.4684h-1.4683c-.7321 0-1.3868-.45569-1.6411-1.1422z" fill="#323232" fill-rule="evenodd" opacity=".1"/><g stroke="#323232" stroke-width="2"><path d="m16.9584 11.0416-1.5349 1.5349c-.4728.4728-.6781 1.1507-.5469 1.8064l.3234 1.6171.0456.2281c.0966.483-.4297.8484-.8485.5892l-1.3444-.8323c-.645-.3993-1.4604-.3993-2.1054 0l-1.34443.8323c-.41878.2592-.94508-.1062-.84849-.5892l.04562-.2281.32342-1.6171c.13114-.6557-.0741-1.3336-.54695-1.8064l-1.57647-1.5765c-.36902-.369-.10767-1 .41421-1h.08579 1.44131c.83666 0 1.58489-.52079 1.87549-1.30537l.6276-1.69463c.191-.51557.9202-.51557 1.1112 0l.6276 1.69463c.2906.78458 1.0388 1.30537 1.8755 1.30537h1.4413.027c.5435 0 .8158.6572.4314 1.0416z" stroke-linejoin="round"/><path d="m3 12c0-7.4115 1.5885-9 9-9s9 1.5885 9 9-1.5885 9-9 9-9-1.5885-9-9z"/></g></svg>